<?xml version="1.0" standalone="no"?>
<svg xmlns="http://www.w3.org/2000/svg" width="1024" height="1024" viewBox="0 0 1024 1024"><defs><clipPath id="clip-path-dot-color"><circle cx="77.5" cy="387.5" r="15.5" transform="rotate(0,77.5,387.5)"/><path d="M 62 434v 31h 15.5a 15.5 15.5, 0, 0, 0, 0 -31" transform="rotate(-90,77.5,449.5)"/><path d="M 62 465v 31h 31a 31 31, 0, 0, 0, -31 -31" transform="rotate(180,77.5,480.5)"/><path d="M 62 558v 31h 15.5a 15.5 15.5, 0, 0, 0, 0 -31" transform="rotate(-90,77.5,573.5)"/><rect x="62" y="589" width="31" height="31" transform="rotate(0,77.5,604.5)"/><rect x="62" y="620" width="31" height="31" transform="rotate(0,77.5,635.5)"/><path d="M 62 651v 31h 15.5a 15.5 15.5, 0, 0, 0, 0 -31" transform="rotate(90,77.5,666.5)"/><circle cx="108.5" cy="325.5" r="15.5" transform="rotate(0,108.5,325.5)"/><path d="M 93 403v 31h 15.5a 15.5 15.5, 0, 0, 0, 0 -31" transform="rotate(180,108.5,418.5)"/><path d="M 93 465v 31h 15.5a 15.5 15.5, 0, 0, 0, 0 -31" transform="rotate(0,108.5,480.5)"/><circle cx="108.5" cy="542.5" r="15.5" transform="rotate(0,108.5,542.5)"/><path d="M 93 589v 31h 15.5a 15.5 15.5, 0, 0, 0, 0 -31" transform="rotate(0,108.5,604.5)"/><path d="M 93 682v 31h 15.5a 15.5 15.5, 0, 0, 0, 0 -31" transform="rotate(180,108.5,697.5)"/><rect x="124" y="403" width="31" height="31" transform="rotate(0,139.5,418.5)"/><path d="M 124 434v 31h 15.5a 15.5 15.5, 0, 0, 0, 0 -31" transform="rotate(90,139.5,449.5)"/><circle cx="139.5" cy="511.5" r="15.5" transform="rotate(0,139.5,511.5)"/><path d="M 124 558v 31h 15.5a 15.5 15.5, 0, 0, 0, 0 -31" transform="rotate(180,139.5,573.5)"/><circle cx="139.5" cy="635.5" r="15.5" transform="rotate(0,139.5,635.5)"/><rect x="124" y="682" width="31" height="31" transform="rotate(0,139.5,697.5)"/><path d="M 155 310v 31h 31a 31 31, 0, 0, 0, -31 -31" transform="rotate(-90,170.5,325.5)"/><path d="M 155 341v 31h 31a 31 31, 0, 0, 0, -31 -31" transform="rotate(180,170.5,356.5)"/><path d="M 155 403v 31h 15.5a 15.5 15.5, 0, 0, 0, 0 -31" transform="rotate(0,170.5,418.5)"/><path d="M 155 558v 31h 31a 31 31, 0, 0, 0, -31 -31" transform="rotate(0,170.5,573.5)"/><path d="M 155 589v 31h 31a 31 31, 0, 0, 0, -31 -31" transform="rotate(180,170.5,604.5)"/><path d="M 155 651v 31h 31a 31 31, 0, 0, 0, -31 -31" transform="rotate(-90,170.5,666.5)"/><path d="M 155 682v 31h 31a 31 31, 0, 0, 0, -31 -31" transform="rotate(90,170.5,697.5)"/><path d="M 186 310v 31h 31a 31 31, 0, 0, 0, -31 -31" transform="rotate(0,201.5,325.5)"/><rect x="186" y="341" width="31" height="31" transform="rotate(0,201.5,356.5)"/><path d="M 186 372v 31h 31a 31 31, 0, 0, 0, -31 -31" transform="rotate(180,201.5,387.5)"/><path d="M 186 465v 31h 31a 31 31, 0, 0, 0, -31 -31" transform="rotate(-90,201.5,480.5)"/><rect x="186" y="496" width="31" height="31" transform="rotate(0,201.5,511.5)"/><path d="M 186 527v 31h 15.5a 15.5 15.5, 0, 0, 0, 0 -31" transform="rotate(90,201.5,542.5)"/><rect x="186" y="589" width="31" height="31" transform="rotate(0,201.5,604.5)"/><path d="M 186 651v 31h 15.5a 15.5 15.5, 0, 0, 0, 0 -31" transform="rotate(0,201.5,666.5)"/><rect x="217" y="372" width="31" height="31" transform="rotate(0,232.5,387.5)"/><path d="M 217 434v 31h 31a 31 31, 0, 0, 0, -31 -31" transform="rotate(-90,232.5,449.5)"/><rect x="217" y="465" width="31" height="31" transform="rotate(0,232.5,480.5)"/><rect x="217" y="496" width="31" height="31" transform="rotate(0,232.5,511.5)"/><path d="M 217 558v 31h 31a 31 31, 0, 0, 0, -31 -31" transform="rotate(-90,232.5,573.5)"/><rect x="217" y="589" width="31" height="31" transform="rotate(0,232.5,604.5)"/><path d="M 217 620v 31h 31a 31 31, 0, 0, 0, -31 -31" transform="rotate(180,232.5,635.5)"/><path d="M 248 310v 31h 15.5a 15.5 15.5, 0, 0, 0, 0 -31" transform="rotate(180,263.5,325.5)"/><rect x="248" y="372" width="31" height="31" transform="rotate(0,263.5,387.5)"/><rect x="248" y="434" width="31" height="31" transform="rotate(0,263.5,449.5)"/><rect x="248" y="496" width="31" height="31" transform="rotate(0,263.5,511.5)"/><rect x="248" y="558" width="31" height="31" transform="rotate(0,263.5,573.5)"/><path d="M 248 620v 31h 15.5a 15.5 15.5, 0, 0, 0, 0 -31" transform="rotate(0,263.5,635.5)"/><path d="M 248 682v 31h 15.5a 15.5 15.5, 0, 0, 0, 0 -31" transform="rotate(180,263.5,697.5)"/><rect x="279" y="310" width="31" height="31" transform="rotate(0,294.5,325.5)"/><rect x="279" y="372" width="31" height="31" transform="rotate(0,294.5,387.5)"/><rect x="279" y="434" width="31" height="31" transform="rotate(0,294.5,449.5)"/><path d="M 279 496v 31h 31a 31 31, 0, 0, 0, -31 -31" transform="rotate(0,294.5,511.5)"/><rect x="279" y="527" width="31" height="31" transform="rotate(0,294.5,542.5)"/><path d="M 279 558v 31h 31a 31 31, 0, 0, 0, -31 -31" transform="rotate(90,294.5,573.5)"/><path d="M 279 682v 31h 15.5a 15.5 15.5, 0, 0, 0, 0 -31" transform="rotate(0,294.5,697.5)"/><circle cx="325.5" cy="108.5" r="15.5" transform="rotate(0,325.5,108.5)"/><path d="M 310 155v 31h 15.5a 15.5 15.5, 0, 0, 0, 0 -31" transform="rotate(-90,325.5,170.5)"/><rect x="310" y="186" width="31" height="31" transform="rotate(0,325.5,201.5)"/><rect x="310" y="217" width="31" height="31" transform="rotate(0,325.5,232.5)"/><path d="M 310 248v 31h 15.5a 15.5 15.5, 0, 0, 0, 0 -31" transform="rotate(90,325.5,263.5)"/><rect x="310" y="310" width="31" height="31" transform="rotate(0,325.5,325.5)"/><rect x="310" y="341" width="31" height="31" transform="rotate(0,325.5,356.5)"/><rect x="310" y="372" width="31" height="31" transform="rotate(0,325.5,387.5)"/><rect x="310" y="403" width="31" height="31" transform="rotate(0,325.5,418.5)"/><rect x="310" y="434" width="31" height="31" transform="rotate(0,325.5,449.5)"/><path d="M 310 465v 31h 31a 31 31, 0, 0, 0, -31 -31" transform="rotate(180,325.5,480.5)"/><path d="M 310 620v 31h 15.5a 15.5 15.5, 0, 0, 0, 0 -31" transform="rotate(-90,325.5,635.5)"/><path d="M 310 651v 31h 15.5a 15.5 15.5, 0, 0, 0, 0 -31" transform="rotate(90,325.5,666.5)"/><path d="M 310 713v 31h 31a 31 31, 0, 0, 0, -31 -31" transform="rotate(-90,325.5,728.5)"/><path d="M 310 744v 31h 15.5a 15.5 15.5, 0, 0, 0, 0 -31" transform="rotate(90,325.5,759.5)"/><path d="M 310 806v 31h 31a 31 31, 0, 0, 0, -31 -31" transform="rotate(-90,325.5,821.5)"/><path d="M 310 837v 31h 15.5a 15.5 15.5, 0, 0, 0, 0 -31" transform="rotate(90,325.5,852.5)"/><path d="M 310 899v 31h 15.5a 15.5 15.5, 0, 0, 0, 0 -31" transform="rotate(180,325.5,914.5)"/><path d="M 341 124v 31h 15.5a 15.5 15.5, 0, 0, 0, 0 -31" transform="rotate(180,356.5,139.5)"/><path d="M 341 217v 31h 15.5a 15.5 15.5, 0, 0, 0, 0 -31" transform="rotate(0,356.5,232.5)"/><path d="M 341 310v 31h 31a 31 31, 0, 0, 0, -31 -31" transform="rotate(0,356.5,325.5)"/><path d="M 341 341v 31h 31a 31 31, 0, 0, 0, -31 -31" transform="rotate(90,356.5,356.5)"/><rect x="341" y="465" width="31" height="31" transform="rotate(0,356.5,480.5)"/><rect x="341" y="496" width="31" height="31" transform="rotate(0,356.5,511.5)"/><rect x="341" y="527" width="31" height="31" transform="rotate(0,356.5,542.5)"/><rect x="341" y="558" width="31" height="31" transform="rotate(0,356.5,573.5)"/><path d="M 341 589v 31h 31a 31 31, 0, 0, 0, -31 -31" transform="rotate(180,356.5,604.5)"/><path d="M 341 682v 31h 15.5a 15.5 15.5, 0, 0, 0, 0 -31" transform="rotate(-90,356.5,697.5)"/><rect x="341" y="713" width="31" height="31" transform="rotate(0,356.5,728.5)"/><rect x="341" y="806" width="31" height="31" transform="rotate(0,356.5,821.5)"/><path d="M 341 868v 31h 15.5a 15.5 15.5, 0, 0, 0, 0 -31" transform="rotate(-90,356.5,883.5)"/><path d="M 341 899v 31h 31a 31 31, 0, 0, 0, -31 -31" transform="rotate(90,356.5,914.5)"/><path d="M 372 124v 31h 15.5a 15.5 15.5, 0, 0, 0, 0 -31" transform="rotate(0,387.5,139.5)"/><circle cx="387.5" cy="201.5" r="15.5" transform="rotate(0,387.5,201.5)"/><circle cx="387.5" cy="263.5" r="15.5" transform="rotate(0,387.5,263.5)"/><path d="M 372 372v 31h 31a 31 31, 0, 0, 0, -31 -31" transform="rotate(-90,387.5,387.5)"/><path d="M 372 403v 31h 31a 31 31, 0, 0, 0, -31 -31" transform="rotate(180,387.5,418.5)"/><rect x="372" y="465" width="31" height="31" transform="rotate(0,387.5,480.5)"/><path d="M 372 527v 31h 15.5a 15.5 15.5, 0, 0, 0, 0 -31" transform="rotate(0,387.5,542.5)"/><rect x="372" y="589" width="31" height="31" transform="rotate(0,387.5,604.5)"/><path d="M 372 620v 31h 15.5a 15.5 15.5, 0, 0, 0, 0 -31" transform="rotate(90,387.5,635.5)"/><path d="M 372 713v 31h 31a 31 31, 0, 0, 0, -31 -31" transform="rotate(0,387.5,728.5)"/><rect x="372" y="744" width="31" height="31" transform="rotate(0,387.5,759.5)"/><rect x="372" y="775" width="31" height="31" transform="rotate(0,387.5,790.5)"/><rect x="372" y="806" width="31" height="31" transform="rotate(0,387.5,821.5)"/><path d="M 403 93v 31h 15.5a 15.5 15.5, 0, 0, 0, 0 -31" transform="rotate(180,418.5,108.5)"/><path d="M 403 155v 31h 15.5a 15.5 15.5, 0, 0, 0, 0 -31" transform="rotate(180,418.5,170.5)"/><path d="M 403 279v 31h 15.5a 15.5 15.5, 0, 0, 0, 0 -31" transform="rotate(180,418.5,294.5)"/><rect x="403" y="372" width="31" height="31" transform="rotate(0,418.5,387.5)"/><rect x="403" y="403" width="31" height="31" transform="rotate(0,418.5,418.5)"/><rect x="403" y="465" width="31" height="31" transform="rotate(0,418.5,480.5)"/><path d="M 403 558v 31h 15.5a 15.5 15.5, 0, 0, 0, 0 -31" transform="rotate(-90,418.5,573.5)"/><path d="M 403 589v 31h 31a 31 31, 0, 0, 0, -31 -31" transform="rotate(90,418.5,604.5)"/><path d="M 403 651v 31h 15.5a 15.5 15.5, 0, 0, 0, 0 -31" transform="rotate(-90,418.5,666.5)"/><path d="M 403 682v 31h 15.5a 15.5 15.5, 0, 0, 0, 0 -31" transform="rotate(90,418.5,697.5)"/><path d="M 403 775v 31h 31a 31 31, 0, 0, 0, -31 -31" transform="rotate(0,418.5,790.5)"/><rect x="403" y="806" width="31" height="31" transform="rotate(0,418.5,821.5)"/><path d="M 403 837v 31h 31a 31 31, 0, 0, 0, -31 -31" transform="rotate(180,418.5,852.5)"/><circle cx="418.5" cy="945.5" r="15.5" transform="rotate(0,418.5,945.5)"/><path d="M 434 93v 31h 31a 31 31, 0, 0, 0, -31 -31" transform="rotate(0,449.5,108.5)"/><rect x="434" y="124" width="31" height="31" transform="rotate(0,449.5,139.5)"/><path d="M 434 155v 31h 31a 31 31, 0, 0, 0, -31 -31" transform="rotate(90,449.5,170.5)"/><path d="M 434 217v 31h 31a 31 31, 0, 0, 0, -31 -31" transform="rotate(-90,449.5,232.5)"/><rect x="434" y="248" width="31" height="31" transform="rotate(0,449.5,263.5)"/><rect x="434" y="279" width="31" height="31" transform="rotate(0,449.5,294.5)"/><rect x="434" y="310" width="31" height="31" transform="rotate(0,449.5,325.5)"/><rect x="434" y="341" width="31" height="31" transform="rotate(0,449.5,356.5)"/><rect x="434" y="372" width="31" height="31" transform="rotate(0,449.5,387.5)"/><rect x="434" y="403" width="31" height="31" transform="rotate(0,449.5,418.5)"/><rect x="434" y="465" width="31" height="31" transform="rotate(0,449.5,480.5)"/><path d="M 434 620v 31h 15.5a 15.5 15.5, 0, 0, 0, 0 -31" transform="rotate(180,449.5,635.5)"/><path d="M 434 713v 31h 15.5a 15.5 15.5, 0, 0, 0, 0 -31" transform="rotate(-90,449.5,728.5)"/><path d="M 434 744v 31h 31a 31 31, 0, 0, 0, -31 -31" transform="rotate(180,449.5,759.5)"/><path d="M 434 837v 31h 31a 31 31, 0, 0, 0, -31 -31" transform="rotate(0,449.5,852.5)"/><rect x="434" y="868" width="31" height="31" transform="rotate(0,449.5,883.5)"/><path d="M 434 899v 31h 31a 31 31, 0, 0, 0, -31 -31" transform="rotate(180,449.5,914.5)"/><path d="M 465 62v 31h 15.5a 15.5 15.5, 0, 0, 0, 0 -31" transform="rotate(180,480.5,77.5)"/><path d="M 465 124v 31h 15.5a 15.5 15.5, 0, 0, 0, 0 -31" transform="rotate(0,480.5,139.5)"/><rect x="465" y="217" width="31" height="31" transform="rotate(0,480.5,232.5)"/><path d="M 465 279v 31h 31a 31 31, 0, 0, 0, -31 -31" transform="rotate(0,480.5,294.5)"/><rect x="465" y="310" width="31" height="31" transform="rotate(0,480.5,325.5)"/><path d="M 465 341v 31h 31a 31 31, 0, 0, 0, -31 -31" transform="rotate(90,480.5,356.5)"/><path d="M 465 403v 31h 15.5a 15.5 15.5, 0, 0, 0, 0 -31" transform="rotate(0,480.5,418.5)"/><path d="M 465 465v 31h 15.5a 15.5 15.5, 0, 0, 0, 0 -31" transform="rotate(0,480.5,480.5)"/><circle cx="480.5" cy="542.5" r="15.5" transform="rotate(0,480.5,542.5)"/><path d="M 465 589v 31h 31a 31 31, 0, 0, 0, -31 -31" transform="rotate(-90,480.5,604.5)"/><path d="M 465 620v 31h 31a 31 31, 0, 0, 0, -31 -31" transform="rotate(90,480.5,635.5)"/><rect x="465" y="744" width="31" height="31" transform="rotate(0,480.5,759.5)"/><circle cx="480.5" cy="821.5" r="15.5" transform="rotate(0,480.5,821.5)"/><path d="M 465 868v 31h 31a 31 31, 0, 0, 0, -31 -31" transform="rotate(0,480.5,883.5)"/><path d="M 465 899v 31h 31a 31 31, 0, 0, 0, -31 -31" transform="rotate(90,480.5,914.5)"/><rect x="496" y="62" width="31" height="31" transform="rotate(0,511.5,77.5)"/><path d="M 496 155v 31h 15.5a 15.5 15.5, 0, 0, 0, 0 -31" transform="rotate(180,511.5,170.5)"/><path d="M 496 217v 31h 31a 31 31, 0, 0, 0, -31 -31" transform="rotate(0,511.5,232.5)"/><path d="M 496 248v 31h 15.5a 15.5 15.5, 0, 0, 0, 0 -31" transform="rotate(90,511.5,263.5)"/><circle cx="511.5" cy="449.5" r="15.5" transform="rotate(0,511.5,449.5)"/><circle cx="511.5" cy="511.5" r="15.5" transform="rotate(0,511.5,511.5)"/><path d="M 496 558v 31h 15.5a 15.5 15.5, 0, 0, 0, 0 -31" transform="rotate(-90,511.5,573.5)"/><rect x="496" y="589" width="31" height="31" transform="rotate(0,511.5,604.5)"/><path d="M 496 651v 31h 15.5a 15.5 15.5, 0, 0, 0, 0 -31" transform="rotate(-90,511.5,666.5)"/><rect x="496" y="682" width="31" height="31" transform="rotate(0,511.5,697.5)"/><rect x="496" y="713" width="31" height="31" transform="rotate(0,511.5,728.5)"/><rect x="496" y="744" width="31" height="31" transform="rotate(0,511.5,759.5)"/><path d="M 496 775v 31h 15.5a 15.5 15.5, 0, 0, 0, 0 -31" transform="rotate(90,511.5,790.5)"/><path d="M 496 837v 31h 15.5a 15.5 15.5, 0, 0, 0, 0 -31" transform="rotate(180,511.5,852.5)"/><path d="M 496 930v 31h 15.5a 15.5 15.5, 0, 0, 0, 0 -31" transform="rotate(180,511.5,945.5)"/><path d="M 527 62v 31h 31a 31 31, 0, 0, 0, -31 -31" transform="rotate(0,542.5,77.5)"/><rect x="527" y="93" width="31" height="31" transform="rotate(0,542.5,108.5)"/><rect x="527" y="124" width="31" height="31" transform="rotate(0,542.5,139.5)"/><rect x="527" y="155" width="31" height="31" transform="rotate(0,542.5,170.5)"/><path d="M 527 186v 31h 15.5a 15.5 15.5, 0, 0, 0, 0 -31" transform="rotate(90,542.5,201.5)"/><path d="M 527 279v 31h 15.5a 15.5 15.5, 0, 0, 0, 0 -31" transform="rotate(-90,542.5,294.5)"/><rect x="527" y="310" width="31" height="31" transform="rotate(0,542.5,325.5)"/><path d="M 527 341v 31h 31a 31 31, 0, 0, 0, -31 -31" transform="rotate(180,542.5,356.5)"/><circle cx="542.5" cy="480.5" r="15.5" transform="rotate(0,542.5,480.5)"/><path d="M 527 527v 31h 15.5a 15.5 15.5, 0, 0, 0, 0 -31" transform="rotate(180,542.5,542.5)"/><rect x="527" y="589" width="31" height="31" transform="rotate(0,542.5,604.5)"/><path d="M 527 620v 31h 15.5a 15.5 15.5, 0, 0, 0, 0 -31" transform="rotate(90,542.5,635.5)"/><rect x="527" y="682" width="31" height="31" transform="rotate(0,542.5,697.5)"/><path d="M 527 806v 31h 15.5a 15.5 15.5, 0, 0, 0, 0 -31" transform="rotate(-90,542.5,821.5)"/><rect x="527" y="837" width="31" height="31" transform="rotate(0,542.5,852.5)"/><path d="M 527 868v 31h 15.5a 15.5 15.5, 0, 0, 0, 0 -31" transform="rotate(90,542.5,883.5)"/><rect x="527" y="930" width="31" height="31" transform="rotate(0,542.5,945.5)"/><path d="M 558 124v 31h 15.5a 15.5 15.5, 0, 0, 0, 0 -31" transform="rotate(0,573.5,139.5)"/><path d="M 558 217v 31h 31a 31 31, 0, 0, 0, -31 -31" transform="rotate(-90,573.5,232.5)"/><path d="M 558 248v 31h 15.5a 15.5 15.5, 0, 0, 0, 0 -31" transform="rotate(90,573.5,263.5)"/><path d="M 558 341v 31h 31a 31 31, 0, 0, 0, -31 -31" transform="rotate(0,573.5,356.5)"/><path d="M 558 372v 31h 15.5a 15.5 15.5, 0, 0, 0, 0 -31" transform="rotate(90,573.5,387.5)"/><path d="M 558 527v 31h 31a 31 31, 0, 0, 0, -31 -31" transform="rotate(0,573.5,542.5)"/><rect x="558" y="558" width="31" height="31" transform="rotate(0,573.5,573.5)"/><path d="M 558 589v 31h 31a 31 31, 0, 0, 0, -31 -31" transform="rotate(90,573.5,604.5)"/><rect x="558" y="682" width="31" height="31" transform="rotate(0,573.5,697.5)"/><path d="M 558 837v 31h 15.5a 15.5 15.5, 0, 0, 0, 0 -31" transform="rotate(0,573.5,852.5)"/><path d="M 558 899v 31h 15.5a 15.5 15.5, 0, 0, 0, 0 -31" transform="rotate(-90,573.5,914.5)"/><path d="M 558 930v 31h 31a 31 31, 0, 0, 0, -31 -31" transform="rotate(90,573.5,945.5)"/><path d="M 589 62v 31h 31a 31 31, 0, 0, 0, -31 -31" transform="rotate(-90,604.5,77.5)"/><path d="M 589 93v 31h 31a 31 31, 0, 0, 0, -31 -31" transform="rotate(180,604.5,108.5)"/><path d="M 589 155v 31h 31a 31 31, 0, 0, 0, -31 -31" transform="rotate(-90,604.5,170.5)"/><rect x="589" y="186" width="31" height="31" transform="rotate(0,604.5,201.5)"/><rect x="589" y="217" width="31" height="31" transform="rotate(0,604.5,232.5)"/><circle cx="604.5" cy="294.5" r="15.5" transform="rotate(0,604.5,294.5)"/><path d="M 589 403v 31h 31a 31 31, 0, 0, 0, -31 -31" transform="rotate(-90,604.5,418.5)"/><rect x="589" y="434" width="31" height="31" transform="rotate(0,604.5,449.5)"/><rect x="589" y="465" width="31" height="31" transform="rotate(0,604.5,480.5)"/><path d="M 589 496v 31h 15.5a 15.5 15.5, 0, 0, 0, 0 -31" transform="rotate(90,604.5,511.5)"/><path d="M 589 558v 31h 15.5a 15.5 15.5, 0, 0, 0, 0 -31" transform="rotate(0,604.5,573.5)"/><circle cx="604.5" cy="635.5" r="15.5" transform="rotate(0,604.5,635.5)"/><rect x="589" y="682" width="31" height="31" transform="rotate(0,604.5,697.5)"/><rect x="589" y="713" width="31" height="31" transform="rotate(0,604.5,728.5)"/><rect x="589" y="744" width="31" height="31" transform="rotate(0,604.5,759.5)"/><rect x="589" y="775" width="31" height="31" transform="rotate(0,604.5,790.5)"/><path d="M 589 806v 31h 31a 31 31, 0, 0, 0, -31 -31" transform="rotate(180,604.5,821.5)"/><rect x="620" y="62" width="31" height="31" transform="rotate(0,635.5,77.5)"/><rect x="620" y="93" width="31" height="31" transform="rotate(0,635.5,108.5)"/><rect x="620" y="155" width="31" height="31" transform="rotate(0,635.5,170.5)"/><rect x="620" y="186" width="31" height="31" transform="rotate(0,635.5,201.5)"/><rect x="620" y="217" width="31" height="31" transform="rotate(0,635.5,232.5)"/><path d="M 620 248v 31h 15.5a 15.5 15.5, 0, 0, 0, 0 -31" transform="rotate(90,635.5,263.5)"/><path d="M 620 341v 31h 15.5a 15.5 15.5, 0, 0, 0, 0 -31" transform="rotate(180,635.5,356.5)"/><rect x="620" y="403" width="31" height="31" transform="rotate(0,635.5,418.5)"/><circle cx="635.5" cy="542.5" r="15.5" transform="rotate(0,635.5,542.5)"/><path d="M 620 651v 31h 15.5a 15.5 15.5, 0, 0, 0, 0 -31" transform="rotate(-90,635.5,666.5)"/><rect x="620" y="682" width="31" height="31" transform="rotate(0,635.5,697.5)"/><rect x="620" y="806" width="31" height="31" transform="rotate(0,635.5,821.5)"/><path d="M 620 930v 31h 15.5a 15.5 15.5, 0, 0, 0, 0 -31" transform="rotate(180,635.5,945.5)"/><rect x="651" y="62" width="31" height="31" transform="rotate(0,666.5,77.5)"/><rect x="651" y="93" width="31" height="31" transform="rotate(0,666.5,108.5)"/><rect x="651" y="124" width="31" height="31" transform="rotate(0,666.5,139.5)"/><rect x="651" y="155" width="31" height="31" transform="rotate(0,666.5,170.5)"/><path d="M 651 217v 31h 15.5a 15.5 15.5, 0, 0, 0, 0 -31" transform="rotate(0,666.5,232.5)"/><path d="M 651 279v 31h 15.5a 15.5 15.5, 0, 0, 0, 0 -31" transform="rotate(180,666.5,294.5)"/><rect x="651" y="341" width="31" height="31" transform="rotate(0,666.5,356.5)"/><rect x="651" y="403" width="31" height="31" transform="rotate(0,666.5,418.5)"/><path d="M 651 434v 31h 31a 31 31, 0, 0, 0, -31 -31" transform="rotate(180,666.5,449.5)"/><circle cx="666.5" cy="635.5" r="15.5" transform="rotate(0,666.5,635.5)"/><rect x="651" y="682" width="31" height="31" transform="rotate(0,666.5,697.5)"/><rect x="651" y="713" width="31" height="31" transform="rotate(0,666.5,728.5)"/><rect x="651" y="744" width="31" height="31" transform="rotate(0,666.5,759.5)"/><rect x="651" y="775" width="31" height="31" transform="rotate(0,666.5,790.5)"/><rect x="651" y="806" width="31" height="31" transform="rotate(0,666.5,821.5)"/><path d="M 651 868v 31h 15.5a 15.5 15.5, 0, 0, 0, 0 -31" transform="rotate(180,666.5,883.5)"/><path d="M 651 930v 31h 15.5a 15.5 15.5, 0, 0, 0, 0 -31" transform="rotate(0,666.5,945.5)"/><path d="M 682 62v 31h 31a 31 31, 0, 0, 0, -31 -31" transform="rotate(0,697.5,77.5)"/><rect x="682" y="93" width="31" height="31" transform="rotate(0,697.5,108.5)"/><rect x="682" y="124" width="31" height="31" transform="rotate(0,697.5,139.5)"/><path d="M 682 155v 31h 31a 31 31, 0, 0, 0, -31 -31" transform="rotate(90,697.5,170.5)"/><path d="M 682 248v 31h 15.5a 15.5 15.5, 0, 0, 0, 0 -31" transform="rotate(-90,697.5,263.5)"/><path d="M 682 279v 31h 31a 31 31, 0, 0, 0, -31 -31" transform="rotate(90,697.5,294.5)"/><rect x="682" y="341" width="31" height="31" transform="rotate(0,697.5,356.5)"/><rect x="682" y="372" width="31" height="31" transform="rotate(0,697.5,387.5)"/><rect x="682" y="403" width="31" height="31" transform="rotate(0,697.5,418.5)"/><rect x="682" y="434" width="31" height="31" transform="rotate(0,697.5,449.5)"/><rect x="682" y="465" width="31" height="31" transform="rotate(0,697.5,480.5)"/><rect x="682" y="496" width="31" height="31" transform="rotate(0,697.5,511.5)"/><rect x="682" y="527" width="31" height="31" transform="rotate(0,697.5,542.5)"/><rect x="682" y="558" width="31" height="31" transform="rotate(0,697.5,573.5)"/><path d="M 682 589v 31h 15.5a 15.5 15.5, 0, 0, 0, 0 -31" transform="rotate(90,697.5,604.5)"/><rect x="682" y="682" width="31" height="31" transform="rotate(0,697.5,697.5)"/><rect x="682" y="713" width="31" height="31" transform="rotate(0,697.5,728.5)"/><rect x="682" y="744" width="31" height="31" transform="rotate(0,697.5,759.5)"/><rect x="682" y="775" width="31" height="31" transform="rotate(0,697.5,790.5)"/><rect x="682" y="806" width="31" height="31" transform="rotate(0,697.5,821.5)"/><rect x="682" y="868" width="31" height="31" transform="rotate(0,697.5,883.5)"/><path d="M 682 899v 31h 31a 31 31, 0, 0, 0, -31 -31" transform="rotate(180,697.5,914.5)"/><path d="M 713 310v 31h 15.5a 15.5 15.5, 0, 0, 0, 0 -31" transform="rotate(-90,728.5,325.5)"/><rect x="713" y="341" width="31" height="31" transform="rotate(0,728.5,356.5)"/><rect x="713" y="372" width="31" height="31" transform="rotate(0,728.5,387.5)"/><rect x="713" y="403" width="31" height="31" transform="rotate(0,728.5,418.5)"/><path d="M 713 465v 31h 15.5a 15.5 15.5, 0, 0, 0, 0 -31" transform="rotate(0,728.5,480.5)"/><rect x="713" y="527" width="31" height="31" transform="rotate(0,728.5,542.5)"/><rect x="713" y="558" width="31" height="31" transform="rotate(0,728.5,573.5)"/><path d="M 713 620v 31h 31a 31 31, 0, 0, 0, -31 -31" transform="rotate(-90,728.5,635.5)"/><rect x="713" y="651" width="31" height="31" transform="rotate(0,728.5,666.5)"/><rect x="713" y="682" width="31" height="31" transform="rotate(0,728.5,697.5)"/><rect x="713" y="806" width="31" height="31" transform="rotate(0,728.5,821.5)"/><rect x="713" y="837" width="31" height="31" transform="rotate(0,728.5,852.5)"/><rect x="713" y="868" width="31" height="31" transform="rotate(0,728.5,883.5)"/><rect x="713" y="899" width="31" height="31" transform="rotate(0,728.5,914.5)"/><path d="M 713 930v 31h 15.5a 15.5 15.5, 0, 0, 0, 0 -31" transform="rotate(90,728.5,945.5)"/><path d="M 744 341v 31h 31a 31 31, 0, 0, 0, -31 -31" transform="rotate(0,759.5,356.5)"/><rect x="744" y="372" width="31" height="31" transform="rotate(0,759.5,387.5)"/><path d="M 744 403v 31h 31a 31 31, 0, 0, 0, -31 -31" transform="rotate(90,759.5,418.5)"/><rect x="744" y="527" width="31" height="31" transform="rotate(0,759.5,542.5)"/><rect x="744" y="558" width="31" height="31" transform="rotate(0,759.5,573.5)"/><rect x="744" y="589" width="31" height="31" transform="rotate(0,759.5,604.5)"/><rect x="744" y="620" width="31" height="31" transform="rotate(0,759.5,635.5)"/><rect x="744" y="651" width="31" height="31" transform="rotate(0,759.5,666.5)"/><rect x="744" y="682" width="31" height="31" transform="rotate(0,759.5,697.5)"/><circle cx="759.5" cy="759.5" r="15.5" transform="rotate(0,759.5,759.5)"/><rect x="744" y="806" width="31" height="31" transform="rotate(0,759.5,821.5)"/><path d="M 744 868v 31h 15.5a 15.5 15.5, 0, 0, 0, 0 -31" transform="rotate(0,759.5,883.5)"/><path d="M 775 310v 31h 15.5a 15.5 15.5, 0, 0, 0, 0 -31" transform="rotate(180,790.5,325.5)"/><rect x="775" y="372" width="31" height="31" transform="rotate(0,790.5,387.5)"/><circle cx="790.5" cy="449.5" r="15.5" transform="rotate(0,790.5,449.5)"/><path d="M 775 496v 31h 31a 31 31, 0, 0, 0, -31 -31" transform="rotate(-90,790.5,511.5)"/><path d="M 775 527v 31h 31a 31 31, 0, 0, 0, -31 -31" transform="rotate(90,790.5,542.5)"/><rect x="775" y="589" width="31" height="31" transform="rotate(0,790.5,604.5)"/><rect x="775" y="651" width="31" height="31" transform="rotate(0,790.5,666.5)"/><rect x="775" y="682" width="31" height="31" transform="rotate(0,790.5,697.5)"/><rect x="775" y="806" width="31" height="31" transform="rotate(0,790.5,821.5)"/><path d="M 775 837v 31h 15.5a 15.5 15.5, 0, 0, 0, 0 -31" transform="rotate(90,790.5,852.5)"/><circle cx="790.5" cy="914.5" r="15.5" transform="rotate(0,790.5,914.5)"/><rect x="806" y="310" width="31" height="31" transform="rotate(0,821.5,325.5)"/><path d="M 806 372v 31h 15.5a 15.5 15.5, 0, 0, 0, 0 -31" transform="rotate(0,821.5,387.5)"/><path d="M 806 465v 31h 15.5a 15.5 15.5, 0, 0, 0, 0 -31" transform="rotate(-90,821.5,480.5)"/><rect x="806" y="496" width="31" height="31" transform="rotate(0,821.5,511.5)"/><path d="M 806 558v 31h 31a 31 31, 0, 0, 0, -31 -31" transform="rotate(-90,821.5,573.5)"/><rect x="806" y="589" width="31" height="31" transform="rotate(0,821.5,604.5)"/><rect x="806" y="620" width="31" height="31" transform="rotate(0,821.5,635.5)"/><rect x="806" y="651" width="31" height="31" transform="rotate(0,821.5,666.5)"/><rect x="806" y="682" width="31" height="31" transform="rotate(0,821.5,697.5)"/><rect x="806" y="713" width="31" height="31" transform="rotate(0,821.5,728.5)"/><rect x="806" y="744" width="31" height="31" transform="rotate(0,821.5,759.5)"/><rect x="806" y="775" width="31" height="31" transform="rotate(0,821.5,790.5)"/><path d="M 806 806v 31h 31a 31 31, 0, 0, 0, -31 -31" transform="rotate(90,821.5,821.5)"/><path d="M 837 310v 31h 15.5a 15.5 15.5, 0, 0, 0, 0 -31" transform="rotate(0,852.5,325.5)"/><rect x="837" y="496" width="31" height="31" transform="rotate(0,852.5,511.5)"/><rect x="837" y="558" width="31" height="31" transform="rotate(0,852.5,573.5)"/><path d="M 837 589v 31h 31a 31 31, 0, 0, 0, -31 -31" transform="rotate(90,852.5,604.5)"/><rect x="837" y="775" width="31" height="31" transform="rotate(0,852.5,790.5)"/><path d="M 837 837v 31h 15.5a 15.5 15.5, 0, 0, 0, 0 -31" transform="rotate(-90,852.5,852.5)"/><rect x="837" y="868" width="31" height="31" transform="rotate(0,852.5,883.5)"/><path d="M 837 899v 31h 31a 31 31, 0, 0, 0, -31 -31" transform="rotate(180,852.5,914.5)"/><path d="M 868 434v 31h 15.5a 15.5 15.5, 0, 0, 0, 0 -31" transform="rotate(180,883.5,449.5)"/><path d="M 868 496v 31h 15.5a 15.5 15.5, 0, 0, 0, 0 -31" transform="rotate(0,883.5,511.5)"/><path d="M 868 558v 31h 15.5a 15.5 15.5, 0, 0, 0, 0 -31" transform="rotate(0,883.5,573.5)"/><circle cx="883.5" cy="635.5" r="15.5" transform="rotate(0,883.5,635.5)"/><path d="M 868 682v 31h 31a 31 31, 0, 0, 0, -31 -31" transform="rotate(-90,883.5,697.5)"/><path d="M 868 713v 31h 31a 31 31, 0, 0, 0, -31 -31" transform="rotate(180,883.5,728.5)"/><path d="M 868 775v 31h 31a 31 31, 0, 0, 0, -31 -31" transform="rotate(0,883.5,790.5)"/><path d="M 868 806v 31h 31a 31 31, 0, 0, 0, -31 -31" transform="rotate(180,883.5,821.5)"/><rect x="868" y="868" width="31" height="31" transform="rotate(0,883.5,883.5)"/><rect x="868" y="899" width="31" height="31" transform="rotate(0,883.5,914.5)"/><path d="M 868 930v 31h 31a 31 31, 0, 0, 0, -31 -31" transform="rotate(180,883.5,945.5)"/><circle cx="914.5" cy="325.5" r="15.5" transform="rotate(0,914.5,325.5)"/><path d="M 899 403v 31h 15.5a 15.5 15.5, 0, 0, 0, 0 -31" transform="rotate(-90,914.5,418.5)"/><path d="M 899 434v 31h 31a 31 31, 0, 0, 0, -31 -31" transform="rotate(90,914.5,449.5)"/><circle cx="914.5" cy="542.5" r="15.5" transform="rotate(0,914.5,542.5)"/><rect x="899" y="682" width="31" height="31" transform="rotate(0,914.5,697.5)"/><rect x="899" y="713" width="31" height="31" transform="rotate(0,914.5,728.5)"/><path d="M 899 744v 31h 31a 31 31, 0, 0, 0, -31 -31" transform="rotate(180,914.5,759.5)"/><rect x="899" y="806" width="31" height="31" transform="rotate(0,914.5,821.5)"/><rect x="899" y="837" width="31" height="31" transform="rotate(0,914.5,852.5)"/><path d="M 899 868v 31h 31a 31 31, 0, 0, 0, -31 -31" transform="rotate(90,914.5,883.5)"/><path d="M 899 930v 31h 15.5a 15.5 15.5, 0, 0, 0, 0 -31" transform="rotate(0,914.5,945.5)"/><path d="M 930 465v 31h 15.5a 15.5 15.5, 0, 0, 0, 0 -31" transform="rotate(-90,945.5,480.5)"/><path d="M 930 496v 31h 15.5a 15.5 15.5, 0, 0, 0, 0 -31" transform="rotate(90,945.5,511.5)"/><path d="M 930 651v 31h 15.5a 15.5 15.5, 0, 0, 0, 0 -31" transform="rotate(-90,945.5,666.5)"/><path d="M 930 682v 31h 31a 31 31, 0, 0, 0, -31 -31" transform="rotate(90,945.5,697.5)"/><path d="M 930 744v 31h 31a 31 31, 0, 0, 0, -31 -31" transform="rotate(0,945.5,759.5)"/><rect x="930" y="775" width="31" height="31" transform="rotate(0,945.5,790.5)"/><path d="M 930 806v 31h 31a 31 31, 0, 0, 0, -31 -31" transform="rotate(90,945.5,821.5)"/></clipPath><clipPath id="clip-path-corners-square-color-0-0"><path d="M 62 62v 31h 31a 31 31, 0, 0, 0, -31 -31" transform="rotate(-90,77.5,77.5)"/><rect x="62" y="93" width="31" height="31" transform="rotate(0,77.5,108.5)"/><rect x="62" y="124" width="31" height="31" transform="rotate(0,77.5,139.5)"/><rect x="62" y="155" width="31" height="31" transform="rotate(0,77.5,170.5)"/><rect x="62" y="186" width="31" height="31" transform="rotate(0,77.5,201.5)"/><rect x="62" y="217" width="31" height="31" transform="rotate(0,77.5,232.5)"/><path d="M 62 248v 31h 31a 31 31, 0, 0, 0, -31 -31" transform="rotate(180,77.5,263.5)"/><rect x="93" y="62" width="31" height="31" transform="rotate(0,108.5,77.5)"/><rect x="93" y="248" width="31" height="31" transform="rotate(0,108.5,263.5)"/><rect x="124" y="62" width="31" height="31" transform="rotate(0,139.5,77.5)"/><rect x="124" y="248" width="31" height="31" transform="rotate(0,139.5,263.5)"/><rect x="155" y="62" width="31" height="31" transform="rotate(0,170.5,77.5)"/><rect x="155" y="248" width="31" height="31" transform="rotate(0,170.5,263.5)"/><rect x="186" y="62" width="31" height="31" transform="rotate(0,201.5,77.5)"/><rect x="186" y="248" width="31" height="31" transform="rotate(0,201.5,263.5)"/><rect x="217" y="62" width="31" height="31" transform="rotate(0,232.5,77.5)"/><rect x="217" y="248" width="31" height="31" transform="rotate(0,232.5,263.5)"/><path d="M 248 62v 31h 31a 31 31, 0, 0, 0, -31 -31" transform="rotate(0,263.5,77.5)"/><rect x="248" y="93" width="31" height="31" transform="rotate(0,263.5,108.5)"/><rect x="248" y="124" width="31" height="31" transform="rotate(0,263.5,139.5)"/><rect x="248" y="155" width="31" height="31" transform="rotate(0,263.5,170.5)"/><rect x="248" y="186" width="31" height="31" transform="rotate(0,263.5,201.5)"/><rect x="248" y="217" width="31" height="31" transform="rotate(0,263.5,232.5)"/><path d="M 248 248v 31h 31a 31 31, 0, 0, 0, -31 -31" transform="rotate(90,263.5,263.5)"/></clipPath><clipPath id="clip-path-corners-dot-color-0-0"><path d="M 124 124v 31h 31a 31 31, 0, 0, 0, -31 -31" transform="rotate(-90,139.5,139.5)"/><rect x="124" y="155" width="31" height="31" transform="rotate(0,139.5,170.5)"/><path d="M 124 186v 31h 31a 31 31, 0, 0, 0, -31 -31" transform="rotate(180,139.5,201.5)"/><rect x="155" y="124" width="31" height="31" transform="rotate(0,170.5,139.5)"/><rect x="155" y="155" width="31" height="31" transform="rotate(0,170.5,170.5)"/><rect x="155" y="186" width="31" height="31" transform="rotate(0,170.5,201.5)"/><path d="M 186 124v 31h 31a 31 31, 0, 0, 0, -31 -31" transform="rotate(0,201.5,139.5)"/><rect x="186" y="155" width="31" height="31" transform="rotate(0,201.5,170.5)"/><path d="M 186 186v 31h 31a 31 31, 0, 0, 0, -31 -31" transform="rotate(90,201.5,201.5)"/></clipPath><clipPath id="clip-path-corners-square-color-1-0"><path d="M 744 62v 31h 31a 31 31, 0, 0, 0, -31 -31" transform="rotate(-90,759.5,77.5)"/><rect x="744" y="93" width="31" height="31" transform="rotate(0,759.5,108.5)"/><rect x="744" y="124" width="31" height="31" transform="rotate(0,759.5,139.5)"/><rect x="744" y="155" width="31" height="31" transform="rotate(0,759.5,170.5)"/><rect x="744" y="186" width="31" height="31" transform="rotate(0,759.5,201.5)"/><rect x="744" y="217" width="31" height="31" transform="rotate(0,759.5,232.5)"/><path d="M 744 248v 31h 31a 31 31, 0, 0, 0, -31 -31" transform="rotate(180,759.5,263.5)"/><rect x="775" y="62" width="31" height="31" transform="rotate(0,790.5,77.5)"/><rect x="775" y="248" width="31" height="31" transform="rotate(0,790.5,263.5)"/><rect x="806" y="62" width="31" height="31" transform="rotate(0,821.5,77.5)"/><rect x="806" y="248" width="31" height="31" transform="rotate(0,821.5,263.5)"/><rect x="837" y="62" width="31" height="31" transform="rotate(0,852.5,77.5)"/><rect x="837" y="248" width="31" height="31" transform="rotate(0,852.5,263.5)"/><rect x="868" y="62" width="31" height="31" transform="rotate(0,883.5,77.5)"/><rect x="868" y="248" width="31" height="31" transform="rotate(0,883.5,263.5)"/><rect x="899" y="62" width="31" height="31" transform="rotate(0,914.5,77.5)"/><rect x="899" y="248" width="31" height="31" transform="rotate(0,914.5,263.5)"/><path d="M 930 62v 31h 31a 31 31, 0, 0, 0, -31 -31" transform="rotate(0,945.5,77.5)"/><rect x="930" y="93" width="31" height="31" transform="rotate(0,945.5,108.5)"/><rect x="930" y="124" width="31" height="31" transform="rotate(0,945.5,139.5)"/><rect x="930" y="155" width="31" height="31" transform="rotate(0,945.5,170.5)"/><rect x="930" y="186" width="31" height="31" transform="rotate(0,945.5,201.5)"/><rect x="930" y="217" width="31" height="31" transform="rotate(0,945.5,232.5)"/><path d="M 930 248v 31h 31a 31 31, 0, 0, 0, -31 -31" transform="rotate(90,945.5,263.5)"/></clipPath><clipPath id="clip-path-corners-dot-color-1-0"><path d="M 806 124v 31h 31a 31 31, 0, 0, 0, -31 -31" transform="rotate(-90,821.5,139.5)"/><rect x="806" y="155" width="31" height="31" transform="rotate(0,821.5,170.5)"/><path d="M 806 186v 31h 31a 31 31, 0, 0, 0, -31 -31" transform="rotate(180,821.5,201.5)"/><rect x="837" y="124" width="31" height="31" transform="rotate(0,852.5,139.5)"/><rect x="837" y="155" width="31" height="31" transform="rotate(0,852.5,170.5)"/><rect x="837" y="186" width="31" height="31" transform="rotate(0,852.5,201.5)"/><path d="M 868 124v 31h 31a 31 31, 0, 0, 0, -31 -31" transform="rotate(0,883.5,139.5)"/><rect x="868" y="155" width="31" height="31" transform="rotate(0,883.5,170.5)"/><path d="M 868 186v 31h 31a 31 31, 0, 0, 0, -31 -31" transform="rotate(90,883.5,201.5)"/></clipPath><clipPath id="clip-path-corners-square-color-0-1"><path d="M 62 744v 31h 31a 31 31, 0, 0, 0, -31 -31" transform="rotate(-90,77.5,759.5)"/><rect x="62" y="775" width="31" height="31" transform="rotate(0,77.5,790.5)"/><rect x="62" y="806" width="31" height="31" transform="rotate(0,77.5,821.5)"/><rect x="62" y="837" width="31" height="31" transform="rotate(0,77.5,852.5)"/><rect x="62" y="868" width="31" height="31" transform="rotate(0,77.5,883.5)"/><rect x="62" y="899" width="31" height="31" transform="rotate(0,77.5,914.5)"/><path d="M 62 930v 31h 31a 31 31, 0, 0, 0, -31 -31" transform="rotate(180,77.5,945.5)"/><rect x="93" y="744" width="31" height="31" transform="rotate(0,108.5,759.5)"/><rect x="93" y="930" width="31" height="31" transform="rotate(0,108.5,945.5)"/><rect x="124" y="744" width="31" height="31" transform="rotate(0,139.5,759.5)"/><rect x="124" y="930" width="31" height="31" transform="rotate(0,139.5,945.5)"/><rect x="155" y="744" width="31" height="31" transform="rotate(0,170.5,759.5)"/><rect x="155" y="930" width="31" height="31" transform="rotate(0,170.5,945.5)"/><rect x="186" y="744" width="31" height="31" transform="rotate(0,201.5,759.5)"/><rect x="186" y="930" width="31" height="31" transform="rotate(0,201.5,945.5)"/><rect x="217" y="744" width="31" height="31" transform="rotate(0,232.5,759.5)"/><rect x="217" y="930" width="31" height="31" transform="rotate(0,232.5,945.5)"/><path d="M 248 744v 31h 31a 31 31, 0, 0, 0, -31 -31" transform="rotate(0,263.5,759.5)"/><rect x="248" y="775" width="31" height="31" transform="rotate(0,263.5,790.5)"/><rect x="248" y="806" width="31" height="31" transform="rotate(0,263.5,821.5)"/><rect x="248" y="837" width="31" height="31" transform="rotate(0,263.5,852.5)"/><rect x="248" y="868" width="31" height="31" transform="rotate(0,263.5,883.5)"/><rect x="248" y="899" width="31" height="31" transform="rotate(0,263.5,914.5)"/><path d="M 248 930v 31h 31a 31 31, 0, 0, 0, -31 -31" transform="rotate(90,263.5,945.5)"/></clipPath><clipPath id="clip-path-corners-dot-color-0-1"><path d="M 124 806v 31h 31a 31 31, 0, 0, 0, -31 -31" transform="rotate(-90,139.5,821.5)"/><rect x="124" y="837" width="31" height="31" transform="rotate(0,139.5,852.5)"/><path d="M 124 868v 31h 31a 31 31, 0, 0, 0, -31 -31" transform="rotate(180,139.5,883.5)"/><rect x="155" y="806" width="31" height="31" transform="rotate(0,170.5,821.5)"/><rect x="155" y="837" width="31" height="31" transform="rotate(0,170.5,852.5)"/><rect x="155" y="868" width="31" height="31" transform="rotate(0,170.5,883.5)"/><path d="M 186 806v 31h 31a 31 31, 0, 0, 0, -31 -31" transform="rotate(0,201.5,821.5)"/><rect x="186" y="837" width="31" height="31" transform="rotate(0,201.5,852.5)"/><path d="M 186 868v 31h 31a 31 31, 0, 0, 0, -31 -31" transform="rotate(90,201.5,883.5)"/></clipPath></defs><rect x="0" y="0" height="1024" width="1024" clip-path="url('#clip-path-background-color')" fill="#ffffff"/><rect x="62" y="62" height="899" width="899" clip-path="url('#clip-path-dot-color')" fill="#000000"/><rect x="62" y="62" height="217" width="217" clip-path="url('#clip-path-corners-square-color-0-0')" fill="#000000"/><rect x="124" y="124" height="93" width="93" clip-path="url('#clip-path-corners-dot-color-0-0')" fill="#000000"/><rect x="744" y="62" height="217" width="217" clip-path="url('#clip-path-corners-square-color-1-0')" fill="#000000"/><rect x="806" y="124" height="93" width="93" clip-path="url('#clip-path-corners-dot-color-1-0')" fill="#000000"/><rect x="62" y="744" height="217" width="217" clip-path="url('#clip-path-corners-square-color-0-1')" fill="#000000"/><rect x="124" y="806" height="93" width="93" clip-path="url('#clip-path-corners-dot-color-0-1')" fill="#000000"/></svg>